<svg width="478" height="172" viewBox="0 0 478 172" fill="none" xmlns="http://www.w3.org/2000/svg">
<g clip-path="url(#clip0_1_1297)">
<path d="M0 154.731C22.1494 136.634 44.2391 125.407 80.8568 115.731C117.474 106.056 154.209 98.379 229.441 95.0963C302.648 91.9015 360.342 94.1406 369.809 94.3193C345.606 94.9164 292.448 97.3482 270.822 99.276C252.573 100.904 172.193 107.906 131.676 117.791C96.0589 126.48 44.2696 138.964 10.9564 157.329L0 154.731Z" fill="white"/>
<path d="M28.7024 90.9944L48.6184 39.0043L46.1775 31.8965C46.1775 31.8965 407.264 29.3882 477.999 32.0165L446.68 63.0709L460.97 89.8308C445.103 92.0699 344.478 89.6215 326.258 89.4429C308.039 89.2643 142.72 89.818 116.733 90.9956C84.4322 92.4591 44.7797 91.6706 28.7012 90.9956L28.7024 90.9944Z" fill="#100F13"/>
<path d="M44.611 172C80.4248 157.576 142.125 135.718 210.79 121.741C284.294 106.781 374.349 98.2093 409.539 97.6722C444.728 97.1351 452.528 97.0445 454.582 97.0445C418.664 95.701 372.237 97.1338 352.677 97.0445C333.117 96.9552 270.931 101.848 230.766 106.078C189.087 110.468 86.796 130.057 39.1328 155.679L44.611 171.999V172Z" fill="url(#paint0_linear_1_1297)"/>
<path d="M147.572 144.802C164.78 139.547 247.16 118.174 300.711 111.774C350.189 105.862 372.934 102.637 433.547 100.844C407.855 103.024 347.182 109.982 328.426 113.236C309.807 116.468 211.934 134.737 193.402 140.56L192.271 140.471L196.558 138.366L178.457 138.083L147.57 144.801L147.572 144.802Z" fill="url(#paint1_linear_1_1297)"/>
<path d="M92.3162 35.3937C86.9614 35.1704 52.7095 35.3937 52.7095 35.3937L54.0349 40.3887L37.627 81.3667C37.627 81.3667 68.7524 81.7623 76.08 81.1128C83.3987 80.4532 90.6449 77.9653 94.9975 72.534C99.3907 67.0618 104.431 51.0804 104.938 46.8458C105.991 38.073 97.68 35.6169 92.315 35.3924L92.3162 35.3937ZM89.4315 50.6938C88.3783 54.6936 84.1682 64.1975 83.4292 66.0756C82.6903 67.9638 80.1502 70.6444 75.7264 70.7057C71.3026 70.7567 58.0631 70.7975 58.0631 70.7975L67.74 45.8404C67.74 45.8404 83.054 45.8914 84.9276 45.9922C87.6711 46.1339 90.3422 47.2107 89.4315 50.6938Z" fill="url(#paint2_linear_1_1297)"/>
<path d="M146.164 37.5052C143.005 37.3431 109.826 37.5052 109.826 37.5052C110.544 39.7494 114.35 44.5722 118.612 45.8404C113.49 45.7996 110.454 44.8962 110.454 44.8962L97.7207 79.2449L111.517 79.4172L116.224 66.9992H124.604L130.829 79.5588H146.549L139.181 66.6433C140.75 66.4608 144.111 65.4555 146.063 64.1247C150.355 61.2209 154.05 53.9612 155.093 46.4171C156.175 38.6802 149.323 37.6749 146.165 37.5026L146.164 37.5052ZM140.161 51.7502C139.281 54.4103 137.691 57.3652 135.637 57.6395C134.018 57.8526 119.442 57.6395 119.442 57.6395L123.4 47.365C123.4 47.365 135.708 47.1622 138.309 47.1009C141.113 47.0193 140.992 49.2431 140.161 51.7514V51.7502Z" fill="url(#paint3_linear_1_1297)"/>
<path d="M148.486 79.555L164.012 37.2487L178.122 37.4363L162.315 79.555H148.486Z" fill="url(#paint4_linear_1_1297)"/>
<path d="M179.32 37.4363L183.738 79.5562H199.367L233.811 37.4363H218.606L195.69 67.0018L193.845 37.4363H179.32Z" fill="url(#paint5_linear_1_1297)"/>
<path d="M235.449 37.4363L220.125 79.5562H261.179L264.573 69.3621H237.422L239.849 62.8667L262.162 62.9343L265.728 53.3042H243.161L245.55 47.1303L272.291 47.4441L275.937 37.4388H235.449V37.4363Z" fill="url(#paint6_linear_1_1297)"/>
<path d="M290.453 58.8975L283.286 79.5601H268.438L274.268 63.4358L290.453 58.8975Z" fill="url(#paint7_linear_1_1297)"/>
<path d="M319.079 61.9137L306.618 75.4786L298.045 75.2541L296.283 69.3558L319.079 61.9137Z" fill="url(#paint8_linear_1_1297)"/>
<path d="M339.94 55.0904L331.58 79.5601H317.115L323.938 60.3189L339.94 55.0904Z" fill="url(#paint9_linear_1_1297)"/>
<path d="M345.973 37.4337L339.94 55.0903L323.937 60.3188L326.072 54.2878L319.088 61.9022L319.078 61.9124L296.283 69.3545L291.911 54.6936L290.453 58.8975L274.268 63.4357L283.661 37.4337C283.691 37.4643 301.151 37.4337 301.151 37.4337L307.002 59.8825L327.763 37.4337H345.972H345.973Z" fill="url(#paint10_linear_1_1297)"/>
<path d="M433.598 57.4354L447.152 79.5588H429.206L421.595 65.9734L405.319 79.5588H377.505L376.806 72.0861H355.723L350.145 79.5588H334.527L346.056 65.3751C354.812 60.9478 365.136 54.7548 373.76 49.0696L362.838 63.0402L376.3 63.0709L374.518 48.572C379.802 45.0595 384.397 41.7793 387.505 39.262L392.323 76.1484L416.058 57.1419L404.337 37.435H421.393L427.618 48.7455L441.08 37.435H459.532L433.599 57.4367L433.598 57.4354Z" fill="url(#paint11_linear_1_1297)"/>
<path d="M215.154 22.6197V22.6299C215.013 22.6401 214.861 22.6503 214.709 22.6503C214.607 22.6605 214.517 22.6605 214.415 22.6707C214.264 22.681 214.111 22.6912 213.95 22.7014C213.768 22.7014 213.605 22.7116 213.474 22.7218C197.137 23.6047 154.635 24.397 137.944 26.3363C111.03 27.1286 83.3262 27.94 83.3262 27.94C91.8087 27.0967 130.556 24.0818 163.533 21.229C180.002 21.3604 199.952 19.9289 204.587 19.8179C209.648 19.6967 213.819 19.6355 214.648 20.7723C215.103 21.3911 215.185 22.1017 215.154 22.6197Z" fill="url(#paint12_linear_1_1297)"/>
<path d="M410.499 18.7411C410.499 18.7411 378.058 18.2231 359.08 18.8432C340.101 19.4722 309.078 20.711 296.82 21.1882C284.552 21.6654 198.161 24.6203 186.906 24.9252C181.814 25.0566 160.153 25.6869 137.945 26.3363C154.637 24.397 197.139 23.6047 213.475 22.7218C213.606 22.7116 213.769 22.7014 213.951 22.7014C214.112 22.6912 214.265 22.681 214.416 22.6708C214.518 22.6605 214.609 22.6605 214.71 22.6503C214.862 22.6503 215.014 22.6401 215.155 22.6299V22.6197C216.137 22.5585 217.18 22.4985 217.595 22.4577C226.988 21.6552 262.728 20.8845 270.078 20.7008C279.573 20.4571 300.119 19.3905 310.96 18.5587C338.876 18.0304 364.212 17.3708 366.196 17.1476C370.457 16.65 374.861 15.2593 377.178 13.9694C375.853 13.2689 374.01 12.6297 371.753 12.0607L373.252 11.868L367.148 9.86749C367.148 9.86749 374.739 11.0859 382.29 12.4256L410.5 18.7411H410.499Z" fill="url(#paint13_linear_1_1297)"/>
<path d="M352.39 1.58336C347.764 2.50708 340.638 4.07128 336.57 5.64442C329.251 5.30887 320.506 5.17745 309.786 5.39052C282.811 5.93914 234.712 15.1483 226.807 18.8126C226.807 18.8126 231.817 18.9146 235.359 18.8738C235.329 18.884 235.308 18.8942 235.278 18.9044C240.015 19.6457 277.355 19.1992 310.96 18.5587C300.12 19.3918 279.572 20.4572 270.078 20.7008C262.73 20.8833 226.989 21.6552 217.595 22.4577C217.181 22.4985 216.138 22.5598 215.156 22.6197C215.186 22.1017 215.105 21.3911 214.65 20.7723C213.819 19.6355 209.65 19.6955 204.589 19.818C199.952 19.9302 180.002 21.3617 163.533 21.2291C185.235 19.3408 204.436 17.5227 210.883 16.4471C234.578 12.4664 272.081 1.02453 306.151 0.170979C323.662 -0.275572 338.269 0.130152 352.389 1.58208L352.39 1.58336Z" fill="url(#paint14_linear_1_1297)"/>
<path d="M458.469 26.631C458.357 26.6106 458.064 26.5493 457.588 26.4588C423.518 16.7418 382.371 10.5998 369.568 9.00499C361.643 8.02003 352.482 6.36524 336.57 5.64438C340.639 4.07124 347.765 2.50704 352.391 1.58331C382.22 4.639 409.924 12.3656 458.469 26.631Z" fill="url(#paint15_linear_1_1297)"/>
<path d="M382.29 12.4269C374.739 11.0872 367.148 9.86877 367.148 9.86877L373.252 11.8693L371.754 12.062C359.284 8.91442 333.948 7.70618 309.574 8.07235C284.906 8.42832 251.798 13.0469 235.359 18.8751C231.817 18.9159 226.807 18.8138 226.807 18.8138C234.712 15.1483 282.811 5.93912 309.786 5.39177C320.506 5.1787 329.251 5.31012 336.569 5.64567C352.481 6.36653 361.642 8.02132 369.567 9.00628C382.372 10.5998 423.517 16.7431 457.587 26.4601C449.601 24.9265 392.382 13.9311 381.541 12.2661L382.29 12.4281V12.4269Z" fill="url(#paint16_linear_1_1297)"/>
<path d="M326.568 113.563C304.076 117.544 211.389 134.916 193.403 140.56L192.27 140.468L195.053 139.108C217.928 132.975 301.779 115.289 326.568 113.563Z" fill="#1A212B"/>
<path d="M369.809 94.3218C358.078 94.6063 339.534 95.3374 321.071 96.2203C299.602 94.9712 263.274 96.9309 239.649 98.1596C222.998 99.0119 185.234 102.19 159.028 105.399C132.832 108.608 94.5206 117.359 75.1668 122.019C55.9352 126.65 23.464 138.345 2.90578 155.424L0.00195312 154.734C22.1488 136.631 44.2347 125.411 80.8562 115.736C117.478 106.06 154.21 98.3842 229.437 95.0937C302.649 91.9053 360.344 94.1394 369.809 94.3218Z" fill="url(#paint17_linear_1_1297)"/>
<path d="M321.072 96.2215C301.465 97.1555 281.96 98.282 270.827 99.2772C269.794 99.3691 268.569 99.4801 267.162 99.6026H267.152C251.362 98.9327 216.856 101.572 180.367 106.029C149.707 109.766 117.642 114.792 94.1172 120.192C45.8258 131.29 25.3082 141.351 5.49913 156.034L2.9082 155.424C23.4665 138.347 55.9376 126.65 75.1692 122.019C94.523 117.359 132.834 108.608 159.03 105.399C185.236 102.19 223.001 99.0118 239.652 98.1596C263.277 96.9309 299.604 94.9712 321.073 96.2202L321.072 96.2215Z" fill="url(#paint18_linear_1_1297)"/>
<path d="M180.366 106.029C168.372 109.715 128.218 116.162 119.168 118.223C111.141 120.05 71.2913 129.209 55.2777 135.697C42.8878 140.712 23.819 148.053 9.14213 156.907H9.13196L5.49805 156.034C25.3071 141.353 45.8247 131.29 94.1162 120.192C117.639 114.79 149.706 109.765 180.366 106.029Z" fill="url(#paint19_linear_1_1297)"/>
<path d="M267.152 99.6026C243.618 101.704 169.889 108.466 131.679 117.798C96.0601 126.479 44.2657 138.967 10.9538 157.334L9.14258 156.908C23.8194 148.055 42.8895 140.713 55.2781 135.698C71.2905 129.21 111.141 120.052 119.169 118.224C128.217 116.163 168.372 109.715 180.366 106.03C216.856 101.573 251.362 98.9328 267.152 99.6039V99.6026Z" fill="url(#paint20_linear_1_1297)"/>
<path d="M37.2129 124.884C53.6908 117.32 106.772 99.0004 194.252 94.3945C167.891 96.2458 77.715 108.093 37.2129 124.884Z" fill="#3F4753"/>
<path d="M348.219 101.815C307.165 105.796 255.866 112.567 210.793 121.736C142.125 135.717 80.4224 157.578 44.6099 171.995L43.4766 168.624C85.5737 148.866 143.087 133.29 150.769 131.474C159.231 129.473 277.011 104.354 348.219 101.816V101.815Z" fill="url(#paint21_linear_1_1297)"/>
<path d="M89.1621 141.48C97.7273 138.191 106.594 135.767 115.365 133.1C124.199 130.648 132.984 127.939 141.975 126.13C139.723 126.559 137.513 127.182 135.295 127.754C119.917 132.021 104.251 136.278 89.1621 141.48Z" fill="#1A212B"/>
<path d="M64.0957 140.296C88.8055 131.756 113.931 124.917 135.456 120.079C156.98 115.241 185.621 110.583 191.709 110.046C170.526 114.419 110.241 125.732 64.097 140.296H64.0957Z" fill="url(#paint22_linear_1_1297)"/>
<path d="M387.503 39.262C384.395 41.7806 379.8 45.0595 374.516 48.572L374.465 48.1663L373.757 49.0696C365.133 54.7548 354.809 60.9491 346.053 65.3751L368.777 37.4337H387.26L387.503 39.2607V39.262Z" fill="url(#paint23_linear_1_1297)"/>
<path d="M423.082 40.4996L411.098 48.8055L404.336 37.4337H421.391L423.082 40.4996Z" fill="url(#paint24_linear_1_1297)"/>
</g>
<defs>
<linearGradient id="paint0_linear_1_1297" x1="39.1328" y1="134.233" x2="454.58" y2="134.233" gradientUnits="userSpaceOnUse">
<stop offset="0.02" stop-color="#A9B1B5" stop-opacity="0"/>
<stop offset="0.04" stop-color="#A7B0B5" stop-opacity="0.02"/>
<stop offset="0.06" stop-color="#A2AFB7" stop-opacity="0.09"/>
<stop offset="0.08" stop-color="#99ADBB" stop-opacity="0.19"/>
<stop offset="0.1" stop-color="#8DABC0" stop-opacity="0.34"/>
<stop offset="0.12" stop-color="#7DA7C7" stop-opacity="0.54"/>
<stop offset="0.14" stop-color="#6BA3CF" stop-opacity="0.77"/>
<stop offset="0.16" stop-color="#59A0D7"/>
<stop offset="0.35" stop-color="#2A4FA2"/>
<stop offset="0.37" stop-color="#2D59A9"/>
<stop offset="0.41" stop-color="#3776BB"/>
<stop offset="0.43" stop-color="#3E89C8"/>
<stop offset="0.46" stop-color="#3A7EC0"/>
<stop offset="0.5" stop-color="#3061AE"/>
<stop offset="0.53" stop-color="#284A9F"/>
<stop offset="0.68" stop-color="#1F429B"/>
<stop offset="0.75" stop-color="#1E3C90"/>
<stop offset="0.88" stop-color="#1D2E73"/>
<stop offset="0.99" stop-color="#1C1F53"/>
</linearGradient>
<linearGradient id="paint1_linear_1_1297" x1="141.618" y1="122.823" x2="427.594" y2="122.823" gradientUnits="userSpaceOnUse">
<stop offset="0.02" stop-color="#A9B1B5" stop-opacity="0"/>
<stop offset="0.05" stop-color="#A9B1B5" stop-opacity="0.03"/>
<stop offset="0.08" stop-color="#A9B1B5" stop-opacity="0.1"/>
<stop offset="0.11" stop-color="#A9B1B5" stop-opacity="0.23"/>
<stop offset="0.15" stop-color="#A9B1B5" stop-opacity="0.41"/>
<stop offset="0.18" stop-color="#A9B1B5" stop-opacity="0.64"/>
<stop offset="0.22" stop-color="#A9B1B5" stop-opacity="0.92"/>
<stop offset="0.23" stop-color="#A9B1B5"/>
<stop offset="0.31" stop-color="#ACB2B7"/>
<stop offset="0.35" stop-color="#B6BBC0"/>
<stop offset="0.41" stop-color="#D3D6D9"/>
<stop offset="0.49" stop-color="white"/>
<stop offset="0.57" stop-color="#D3D6D9"/>
<stop offset="0.69" stop-color="#A2A8AE"/>
<stop offset="0.74" stop-color="#8F979E"/>
<stop offset="0.95" stop-color="#4F585E"/>
</linearGradient>
<linearGradient id="paint2_linear_1_1297" x1="59.5589" y1="40.1118" x2="78.047" y2="74.57" gradientUnits="userSpaceOnUse">
<stop offset="0.5" stop-color="white"/>
<stop offset="0.85" stop-color="#DBDDDC"/>
</linearGradient>
<linearGradient id="paint3_linear_1_1297" x1="97.7194" y1="58.4956" x2="155.206" y2="58.4956" gradientUnits="userSpaceOnUse">
<stop offset="0.5" stop-color="white"/>
<stop offset="0.85" stop-color="#DBDDDC"/>
</linearGradient>
<linearGradient id="paint4_linear_1_1297" x1="173.713" y1="30.5772" x2="154.317" y2="81.4226" gradientUnits="userSpaceOnUse">
<stop offset="0.5" stop-color="white"/>
<stop offset="0.85" stop-color="#DBDDDC"/>
</linearGradient>
<linearGradient id="paint5_linear_1_1297" x1="206.504" y1="36.5393" x2="209.02" y2="73.0904" gradientUnits="userSpaceOnUse">
<stop offset="0.6" stop-color="white"/>
<stop offset="0.85" stop-color="#DBDDDC"/>
</linearGradient>
<linearGradient id="paint6_linear_1_1297" x1="250.359" y1="43.1904" x2="245.553" y2="74.6053" gradientUnits="userSpaceOnUse">
<stop offset="0.33" stop-color="white"/>
<stop offset="0.85" stop-color="#DBDDDC"/>
</linearGradient>
<linearGradient id="paint7_linear_1_1297" x1="285.586" y1="54.7548" x2="274.452" y2="81.9653" gradientUnits="userSpaceOnUse">
<stop offset="0.03" stop-color="#4477BC" stop-opacity="0.8"/>
<stop offset="0.23" stop-color="#4477BC" stop-opacity="0.94"/>
<stop offset="0.36" stop-color="#4477BC"/>
<stop offset="0.88" stop-color="#375BAA"/>
</linearGradient>
<linearGradient id="paint8_linear_1_1297" x1="313.597" y1="61.8716" x2="299.389" y2="74.1314" gradientUnits="userSpaceOnUse">
<stop offset="0.03" stop-color="#4477BC" stop-opacity="0.8"/>
<stop offset="0.23" stop-color="#4477BC" stop-opacity="0.94"/>
<stop offset="0.36" stop-color="#4477BC"/>
<stop offset="0.88" stop-color="#375BAA"/>
</linearGradient>
<linearGradient id="paint9_linear_1_1297" x1="332.339" y1="54.3644" x2="324.974" y2="79.2569" gradientUnits="userSpaceOnUse">
<stop offset="0.07" stop-color="#4477BC" stop-opacity="0.8"/>
<stop offset="0.09" stop-color="#4477BC" stop-opacity="0.82"/>
<stop offset="0.27" stop-color="#4477BC" stop-opacity="0.95"/>
<stop offset="0.38" stop-color="#4477BC"/>
<stop offset="0.88" stop-color="#375BAA"/>
</linearGradient>
<linearGradient id="paint10_linear_1_1297" x1="309.564" y1="36.8647" x2="310.89" y2="68.9688" gradientUnits="userSpaceOnUse">
<stop offset="0.18" stop-color="#6FCEED"/>
<stop offset="0.53" stop-color="#4B8FCC"/>
</linearGradient>
<linearGradient id="paint11_linear_1_1297" x1="334.525" y1="58.4969" x2="459.53" y2="58.4969" gradientUnits="userSpaceOnUse">
<stop offset="0.07" stop-color="#4477BC" stop-opacity="0.8"/>
<stop offset="0.33" stop-color="#4477BC" stop-opacity="0.94"/>
<stop offset="0.51" stop-color="#4477BC"/>
<stop offset="0.65" stop-color="#4070B7"/>
<stop offset="0.84" stop-color="#385DAB"/>
<stop offset="0.86" stop-color="#375BAA"/>
</linearGradient>
<linearGradient id="paint12_linear_1_1297" x1="122.831" y1="23.4835" x2="221.667" y2="25.014" gradientUnits="userSpaceOnUse">
<stop stop-color="#345BA9"/>
<stop offset="0.35" stop-color="#365CA9" stop-opacity="0.9"/>
<stop offset="0.76" stop-color="#385DAA" stop-opacity="0.8"/>
<stop offset="0.84" stop-color="#385DAA" stop-opacity="0.79"/>
<stop offset="0.88" stop-color="#385DAA" stop-opacity="0.75"/>
<stop offset="0.9" stop-color="#385DAA" stop-opacity="0.67"/>
<stop offset="0.92" stop-color="#385DAA" stop-opacity="0.57"/>
<stop offset="0.94" stop-color="#385DAA" stop-opacity="0.43"/>
<stop offset="0.96" stop-color="#385DAA" stop-opacity="0.26"/>
<stop offset="0.97" stop-color="#385DAA" stop-opacity="0.07"/>
<stop offset="0.98" stop-color="#385DAA" stop-opacity="0"/>
</linearGradient>
<linearGradient id="paint13_linear_1_1297" x1="137.944" y1="18.1019" x2="410.499" y2="18.1019" gradientUnits="userSpaceOnUse">
<stop stop-color="#66CCED"/>
<stop offset="0.01" stop-color="#5DB8E0"/>
<stop offset="0.05" stop-color="#4583BF"/>
<stop offset="0.08" stop-color="#345BA6"/>
<stop offset="0.11" stop-color="#294397"/>
<stop offset="0.13" stop-color="#263B92"/>
<stop offset="0.37" stop-color="#263583"/>
<stop offset="0.74" stop-color="#272F70"/>
<stop offset="0.77" stop-color="#2E5794"/>
<stop offset="0.81" stop-color="#3478B2"/>
<stop offset="0.84" stop-color="#3893C9"/>
<stop offset="0.88" stop-color="#3CA6DA"/>
<stop offset="0.91" stop-color="#3EB1E4"/>
<stop offset="0.95" stop-color="#3FB5E8"/>
</linearGradient>
<linearGradient id="paint14_linear_1_1297" x1="164.13" y1="11.3105" x2="352.985" y2="11.3105" gradientUnits="userSpaceOnUse">
<stop stop-color="#66CCED"/>
<stop offset="0.08" stop-color="#61C1E6"/>
<stop offset="0.21" stop-color="#55A4D5"/>
<stop offset="0.38" stop-color="#4275B9"/>
<stop offset="0.49" stop-color="#3657A7"/>
<stop offset="0.5" stop-color="#3F60AC"/>
<stop offset="0.59" stop-color="#779ACA"/>
<stop offset="0.67" stop-color="#9FC3E0"/>
<stop offset="0.72" stop-color="#B8DDED"/>
<stop offset="0.76" stop-color="#C2E7F3"/>
<stop offset="0.81" stop-color="#ACDCEF"/>
<stop offset="0.9" stop-color="#74C0E7"/>
<stop offset="0.95" stop-color="#53AFE3"/>
</linearGradient>
<linearGradient id="paint15_linear_1_1297" x1="329.782" y1="14.1072" x2="451.68" y2="14.1072" gradientUnits="userSpaceOnUse">
<stop offset="0.02" stop-color="#3D63AE" stop-opacity="0.8"/>
<stop offset="0.09" stop-color="#3D6BB3" stop-opacity="0.82"/>
<stop offset="0.23" stop-color="#3F81C3" stop-opacity="0.89"/>
<stop offset="0.41" stop-color="#42A5DD"/>
<stop offset="0.42" stop-color="#43A7DE"/>
</linearGradient>
<linearGradient id="paint16_linear_1_1297" x1="226.807" y1="15.873" x2="457.587" y2="15.873" gradientUnits="userSpaceOnUse">
<stop stop-color="#268BCB"/>
<stop offset="0.04" stop-color="#2482C0"/>
<stop offset="0.1" stop-color="#216AA3"/>
<stop offset="0.19" stop-color="#1D4474"/>
<stop offset="0.24" stop-color="#1A2C57"/>
<stop offset="0.42" stop-color="#1A2C57"/>
<stop offset="0.53" stop-color="#1A2C57"/>
<stop offset="0.59" stop-color="#184579"/>
<stop offset="0.69" stop-color="#1769AA"/>
<stop offset="0.74" stop-color="#1778BE"/>
<stop offset="0.95" stop-color="#53AFE3"/>
</linearGradient>
<linearGradient id="paint17_linear_1_1297" x1="-2.85608" y1="124.408" x2="366.951" y2="124.408" gradientUnits="userSpaceOnUse">
<stop offset="0.02" stop-color="#A1ABB4" stop-opacity="0.08"/>
<stop offset="0.03" stop-color="#909EB4" stop-opacity="0.3"/>
<stop offset="0.04" stop-color="#8092B4" stop-opacity="0.49"/>
<stop offset="0.05" stop-color="#7388B4" stop-opacity="0.65"/>
<stop offset="0.06" stop-color="#6880B4" stop-opacity="0.78"/>
<stop offset="0.07" stop-color="#607AB4" stop-opacity="0.88"/>
<stop offset="0.09" stop-color="#5A76B4" stop-opacity="0.95"/>
<stop offset="0.11" stop-color="#5673B4" stop-opacity="0.99"/>
<stop offset="0.16" stop-color="#5673B4"/>
<stop offset="0.28" stop-color="#26489E"/>
<stop offset="0.46" stop-color="#3FA9E0"/>
<stop offset="0.6" stop-color="#3678BE"/>
<stop offset="0.71" stop-color="#315AA9"/>
<stop offset="0.77" stop-color="#2F4FA2"/>
</linearGradient>
<linearGradient id="paint18_linear_1_1297" x1="2.9082" y1="125.927" x2="321.072" y2="125.927" gradientUnits="userSpaceOnUse">
<stop offset="0.02" stop-color="#96A1B0" stop-opacity="0.2"/>
<stop offset="0.03" stop-color="#8290AB" stop-opacity="0.41"/>
<stop offset="0.04" stop-color="#7082A6" stop-opacity="0.6"/>
<stop offset="0.06" stop-color="#6276A3" stop-opacity="0.75"/>
<stop offset="0.07" stop-color="#586DA0" stop-opacity="0.86"/>
<stop offset="0.09" stop-color="#50679E" stop-opacity="0.94"/>
<stop offset="0.11" stop-color="#4C649D" stop-opacity="0.99"/>
<stop offset="0.16" stop-color="#4B639D"/>
<stop offset="0.22" stop-color="#263373"/>
<stop offset="0.46" stop-color="#1D4A9F"/>
<stop offset="0.66" stop-color="#224294"/>
<stop offset="0.77" stop-color="#263C8C"/>
</linearGradient>
<linearGradient id="paint19_linear_1_1297" x1="5.49805" y1="131.468" x2="180.366" y2="131.468" gradientUnits="userSpaceOnUse">
<stop offset="0.02" stop-color="#A9B1B5" stop-opacity="0"/>
<stop offset="0.04" stop-color="#A8B0B5" stop-opacity="0.02"/>
<stop offset="0.06" stop-color="#A7B0B7" stop-opacity="0.09"/>
<stop offset="0.08" stop-color="#A4AEBA" stop-opacity="0.2"/>
<stop offset="0.1" stop-color="#A1ADBD" stop-opacity="0.36"/>
<stop offset="0.12" stop-color="#9CABC3" stop-opacity="0.56"/>
<stop offset="0.14" stop-color="#97A8C9" stop-opacity="0.8"/>
<stop offset="0.16" stop-color="#93A7CE"/>
<stop offset="0.46" stop-color="#2A4FA2"/>
<stop offset="0.73" stop-color="#20449C"/>
<stop offset="0.77" stop-color="#1F429B"/>
<stop offset="0.82" stop-color="#1E3C90"/>
<stop offset="0.91" stop-color="#1D2E73"/>
<stop offset="0.99" stop-color="#1C1F53"/>
</linearGradient>
<linearGradient id="paint20_linear_1_1297" x1="9.14258" y1="128.417" x2="267.152" y2="128.417" gradientUnits="userSpaceOnUse">
<stop offset="0.02" stop-color="#A9B1B5" stop-opacity="0"/>
<stop offset="0.04" stop-color="#A6AFB4" stop-opacity="0.03"/>
<stop offset="0.06" stop-color="#9FA9B2" stop-opacity="0.12"/>
<stop offset="0.08" stop-color="#949FAF" stop-opacity="0.26"/>
<stop offset="0.1" stop-color="#8492AA" stop-opacity="0.47"/>
<stop offset="0.12" stop-color="#7081A5" stop-opacity="0.72"/>
<stop offset="0.14" stop-color="#5B709F"/>
<stop offset="0.48" stop-color="#26336F"/>
<stop offset="0.79" stop-color="#222C64"/>
<stop offset="0.99" stop-color="#20265B"/>
</linearGradient>
<linearGradient id="paint21_linear_1_1297" x1="43.4766" y1="136.905" x2="348.219" y2="136.905" gradientUnits="userSpaceOnUse">
<stop offset="0.02" stop-color="#A9B1B5" stop-opacity="0"/>
<stop offset="0.04" stop-color="#A6AFB4" stop-opacity="0.03"/>
<stop offset="0.06" stop-color="#9FABB3" stop-opacity="0.11"/>
<stop offset="0.09" stop-color="#93A3B1" stop-opacity="0.25"/>
<stop offset="0.11" stop-color="#8299AE" stop-opacity="0.45"/>
<stop offset="0.13" stop-color="#6D8CAA" stop-opacity="0.7"/>
<stop offset="0.16" stop-color="#537DA6"/>
<stop offset="0.45" stop-color="#232E67"/>
<stop offset="0.78" stop-color="#1F255C"/>
<stop offset="0.99" stop-color="#1C1F53"/>
</linearGradient>
<linearGradient id="paint22_linear_1_1297" x1="64.0957" y1="125.171" x2="191.707" y2="125.171" gradientUnits="userSpaceOnUse">
<stop offset="0.02" stop-color="#596F9C"/>
<stop offset="0.68" stop-color="#566A97"/>
<stop offset="0.96" stop-color="#556793"/>
</linearGradient>
<linearGradient id="paint23_linear_1_1297" x1="377.939" y1="37.0114" x2="347.331" y2="78.7289" gradientUnits="userSpaceOnUse">
<stop offset="0.42" stop-color="#4CB8E9"/>
<stop offset="0.53" stop-color="#4CB8E9"/>
<stop offset="1" stop-color="#63CDF3"/>
</linearGradient>
<linearGradient id="paint24_linear_1_1297" x1="402.732" y1="31.6413" x2="430.222" y2="54.8498" gradientUnits="userSpaceOnUse">
<stop offset="0.42" stop-color="#4CB8E9"/>
<stop offset="0.53" stop-color="#4CB8E9"/>
<stop offset="1" stop-color="#63CDF3"/>
</linearGradient>
<clipPath id="clip0_1_1297">
<rect width="478" height="172" fill="white"/>
</clipPath>
</defs>
</svg>
